<?xml version="1.0" encoding="UTF-8" standalone="no"?>
<!-- Created with Inkscape (http://www.inkscape.org/) -->

<svg
   width="512"
   height="512"
   viewBox="0 0 135.46666 135.46667"
   version="1.1"
   id="svg90582"
   inkscape:version="1.2.1 (9c6d41e410, 2022-07-14)"
   sodipodi:docname="avatar.svg"
   inkscape:export-filename="/home/short/work/art/profile/profile.png"
   inkscape:export-xdpi="192"
   inkscape:export-ydpi="192"
   xmlns:inkscape="http://www.inkscape.org/namespaces/inkscape"
   xmlns:sodipodi="http://sodipodi.sourceforge.net/DTD/sodipodi-0.dtd"
   xmlns="http://www.w3.org/2000/svg"
   xmlns:svg="http://www.w3.org/2000/svg">
  <sodipodi:namedview
     id="namedview90584"
     pagecolor="#838383"
     bordercolor="#666666"
     borderopacity="1.0"
     inkscape:pageshadow="2"
     inkscape:pageopacity="0"
     inkscape:pagecheckerboard="0"
     inkscape:document-units="mm"
     showgrid="false"
     units="px"
     width="512px"
     inkscape:zoom="1.5554293"
     inkscape:cx="156.86988"
     inkscape:cy="230.80445"
     inkscape:window-width="2560"
     inkscape:window-height="1355"
     inkscape:window-x="26"
     inkscape:window-y="23"
     inkscape:window-maximized="0"
     inkscape:current-layer="layer1"
     inkscape:showpageshadow="0"
     inkscape:deskcolor="#d1d1d1" />
  <defs
     id="defs90579" />
  <g
     inkscape:label="Layer 1"
     inkscape:groupmode="layer"
     id="layer1">
    <g
       id="g336"
       transform="translate(14.368253)">
      <path
         style="fill:#ffffff;fill-opacity:1;stroke:none;stroke-width:0.386165px;stroke-linecap:butt;stroke-linejoin:miter;stroke-opacity:1"
         d="m 80.293261,134.19051 h 15.5828 l -1.22801,-4.21785 -6.551439,2.10467 -4.538178,0.83981 -3.643102,-0.0463 z"
         id="path105143" />
      <path
         style="fill:#ffffff;fill-opacity:1;stroke:none;stroke-width:0.386165px;stroke-linecap:butt;stroke-linejoin:miter;stroke-opacity:1"
         d="m 20.462694,72.171833 -3.663256,-14.990283 4.47208,-12.586118 36.212867,-5.743195 30.455642,20.714185 6.796827,21.760043 0.05143,12.553292 -4.836144,4.535969 -5.381893,-0.117006 -2.633944,1.84165 -4.743683,1.78578 -5.232608,1.18178 -0.617699,1.37229 -4.076011,4.7502 -5.170214,1.89327 -4.124098,0.12953 -4.500396,-1.79372 -2.365846,-2.81491 -1.40241,-2.73423 -6.813294,-0.70414 -7.803041,-1.28731 -3.769728,-1.06792 -7.121613,-3.073952 -3.245316,-2.28546 -3.54837,-3.671406 -1.405044,-4.311649 0.216929,-4.136573 2.335011,-4.777644 1.572543,-4.006216 z"
         id="path98800"
         sodipodi:nodetypes="cccccccccccccccccccccccccccccc" />
      <path
         style="fill:#ffffff;fill-opacity:1;stroke:none;stroke-width:0.386165px;stroke-linecap:butt;stroke-linejoin:miter;stroke-opacity:1"
         d="m 40.565379,133.51259 h -6.6441 l 1.053373,-3.28115 3.221134,1.34278 2.495877,0.4093 z"
         id="path105328" />
      <path
         style="fill:none;stroke:#292929;stroke-width:1.54466;stroke-linecap:round;stroke-linejoin:round;stroke-miterlimit:4;stroke-dasharray:none;stroke-opacity:1"
         d="m 94.754451,130.0959 1.05444,3.66634"
         id="path24316"
         sodipodi:nodetypes="cc" />
      <path
         style="fill:none;stroke:#292929;stroke-width:1.54466;stroke-linecap:round;stroke-linejoin:round;stroke-miterlimit:4;stroke-dasharray:none;stroke-opacity:1"
         d="m 34.799245,130.03424 -0.891104,3.12289"
         id="path24384"
         sodipodi:nodetypes="cc" />
      <path
         style="display:inline;fill:#171717;fill-opacity:1;stroke:#000000;stroke-width:1.54466;stroke-linecap:round;stroke-linejoin:round;stroke-miterlimit:4;stroke-dasharray:none;stroke-opacity:1"
         d="m 40.630571,133.23612 39.475561,0.65688 -0.217857,-1.28638 c 6.214009,1.00737 16.622006,-3.6631 16.622006,-3.6631 0.55954,-4.31995 -6.16353,-17.75777 -7.681405,-18.45157 0,0 -8.664398,-6.06276 -16.935666,-6.80689 -5.77777,10.2315 -18.395844,9.51935 -21.192243,1.82009 0,0 -2.558644,-0.6702 -6.413981,1.21462 -4.346908,3.49058 -5.7019,9.33503 -8.160782,11.48391 -3.858716,3.37226 -3.268284,6.17834 -3.268284,6.17834 -0.622238,1.21431 -1.443964,1.72156 -1.443964,1.72156 2.382046,5.1397 9.260846,5.59108 9.260846,5.59108 z"
         id="path22475"
         sodipodi:nodetypes="ccccccccscccc" />
      <path
         style="display:inline;fill:none;stroke:#292929;stroke-width:1.54466;stroke-linecap:round;stroke-linejoin:round;stroke-miterlimit:4;stroke-dasharray:none;stroke-opacity:1"
         d="m 20.397409,72.172178 c 0.216265,4.789125 -4.523976,9.403931 -4.499521,14.187116 0.05419,10.600546 16.239273,14.347176 16.239273,14.347176 m 3.254422,0.90335 c 6.192154,1.51321 11.887055,2.43378 19.48666,2.6382 m 9.839485,-0.11135 c 16.957147,-1.5406 20.005812,-6.149322 20.005812,-6.149322"
         id="path17727"
         sodipodi:nodetypes="csccccc" />
      <path
         style="display:inline;fill:#dad3b9;fill-opacity:1;stroke:#292929;stroke-width:1.54466;stroke-linecap:round;stroke-linejoin:round;stroke-miterlimit:4;stroke-dasharray:none;stroke-opacity:1"
         d="m 90.709451,32.286944 c 0,0 4.036629,2.605586 9.952449,-1.564024 0,0 -7.966485,0.847902 -10.587372,-3.328752 C 104.66948,22.654945 94.07559,7.0477095 82.870098,7.6386943 75.256287,-3.9980751 63.493787,4.1208694 62.654984,7.0853401 53.595646,11.216695 57.063421,19.768298 57.063421,19.768298"
         id="path9287"
         sodipodi:nodetypes="cccccc" />
      <path
         style="display:inline;fill:#bfa5e6;fill-opacity:1;stroke:#292929;stroke-width:0.772331;stroke-linecap:round;stroke-linejoin:round;stroke-miterlimit:4;stroke-dasharray:none;stroke-opacity:1"
         d="m 92.125689,23.704674 c 0.542636,-3.993531 0.67268,-6.238632 -2.611339,-11.871421 0,0 3.750634,2.122305 4.80304,5.611534 1.058463,3.509313 -2.191701,6.259887 -2.191701,6.259887 z"
         id="path12115"
         sodipodi:nodetypes="ccsc" />
      <path
         style="display:inline;fill:#bfa5e6;fill-opacity:1;stroke:#292929;stroke-width:0.772331;stroke-linecap:round;stroke-linejoin:round;stroke-miterlimit:4;stroke-dasharray:none;stroke-opacity:1"
         d="M 78.953215,6.6350701 C 75.015131,5.0479189 70.783404,5.096101 66.569673,6.309523 c 0,0 3.252431,-2.7950539 6.394958,-2.651784 3.160598,0.1440836 5.988584,2.9773311 5.988584,2.9773311 z"
         id="path12115-3"
         sodipodi:nodetypes="ccsc" />
      <path
         style="display:inline;fill:#bfa5e6;fill-opacity:1;stroke:#292929;stroke-width:0.772331;stroke-linecap:round;stroke-linejoin:round;stroke-miterlimit:4;stroke-dasharray:none;stroke-opacity:1"
         d="m 59.943168,19.447097 c -2.20788,-3.761466 0.264633,-6.707927 0.264633,-6.707927 -0.105826,2.846211 0.125228,4.401756 1.689808,6.92826"
         id="path12115-3-7"
         sodipodi:nodetypes="ccc" />
      <path
         style="display:inline;fill:#dad3b9;fill-opacity:1;stroke:#292929;stroke-width:1.54466;stroke-linecap:round;stroke-linejoin:round;stroke-miterlimit:4;stroke-dasharray:none;stroke-opacity:1"
         d="m 83.778571,101.07664 c 10.21089,-2.990573 13.48091,-5.219956 15.76001,-12.554094 2.279099,-7.334139 -1.34993,-8.315453 1.537789,-16.527354 C 110.37224,57.947061 94.338244,26.252703 79.111355,27.477436 70.556536,17.980896 54.471651,19.014954 45.347007,22.26811 32.482924,23.220231 24.385203,33.50027 22.475763,36.247326 15.915721,38.00659 12.518134,47.24874 12.055938,48.717282 11.593739,50.185823 9.5555088,57.2814 6.7409158,60.411783 9.5618528,59.810892 11.008617,56.4891 11.008617,56.4891 c 0,0 -0.870648,9.280306 -8.1272101,13.431685 5.9053699,1.279018 8.6448711,-7.685413 8.6448711,-7.685413 0,0 -0.243535,9.506872 5.28296,12.940431 0.476517,-1.565661 -0.449855,-2.899106 -0.449855,-2.899106 l 2.886691,0.739061 c 1.751768,0.415924 4.808322,0.102352 4.808322,0.102352 -4.066861,-4.707872 -4.468025,-11.972403 -4.468025,-11.972403 0,0 3.102864,9.84382 7.453627,6.426539 -5.886338,-2.36028 -4.805419,-17.428603 -4.805419,-17.428603 2.549462,11.58358 4.835165,10.312107 4.835165,10.312107 0.908024,-0.05656 -2.619405,-10.007464 -0.170492,-11.596697 0,0 0.30259,14.001466 4.248759,16.414376 0.395936,-0.454313 1.33002,-0.586493 1.33002,-0.586493 -2.57012,-1.408624 -1.490827,-7.307906 -1.490827,-7.307906 6.734442,17.278164 18.889082,13.128411 18.889082,13.128411 -7.030176,-7.546721 -1.36019,-25.569356 -1.36019,-25.569356 0,0 4.454347,12.199345 11.540207,16.901433 1.110187,1.15661 1.20164,3.821705 1.20164,3.821705 1.167399,0.202446 1.209463,-3.498909 1.209463,-3.498909 1.59291,2.156113 0.933657,8.484337 0.933657,8.484337 9.744331,-2.444752 6.711501,-13.957197 6.711501,-13.957197 6.688848,14.329678 0.697943,23.868256 0.697943,23.868256 0,0 3.360202,2.234408 7.319173,-4.289936 l 0.581532,6.330195 2.115246,-7.352821 1.020252,12.08229 c 0.346213,0.736319 1.089978,0.380224 1.089978,0.380224 11.272981,-5.091952 12.146265,11.224584 1.094516,9.116719 l 1.241978,1.191394 z"
         id="path1043"
         sodipodi:nodetypes="csccccscccccccccccccccccccccccccccccccc" />
      <path
         style="display:inline;fill:#292929;fill-opacity:1;stroke:#292929;stroke-width:0.386165px;stroke-linecap:butt;stroke-linejoin:miter;stroke-opacity:1"
         d="m 23.257463,74.88422 c 3.253179,-1.235615 5.967083,-2.231862 10.555626,-1.659589 0.513345,-0.03625 0.434848,-0.568764 0.07938,-1.134939 -0.338991,-0.408391 -0.164973,-0.128992 -0.658777,-0.487685 -0.450473,-0.271163 -0.165536,-1.096525 -0.924452,-1.288326 -6.326288,0.15424 -9.683737,2.538282 -9.902372,3.265628 0.03412,0.963151 0.621582,1.230242 0.850585,1.304911 z"
         id="path30397"
         sodipodi:nodetypes="ccccccc" />
      <path
         style="display:inline;fill:#292929;fill-opacity:1;stroke:#292929;stroke-width:0.386165;stroke-linecap:round;stroke-linejoin:round;stroke-miterlimit:4;stroke-dasharray:none;stroke-opacity:1"
         d="m 62.250171,72.877085 c -2.19152,-1.697033 -12.696578,-2.644117 -12.696578,-2.644117 -0.132305,1.378921 -0.33932,1.369281 -0.608239,2.235108 2.734236,-0.0622 10.511474,1.858208 12.615543,2.666209 0.568163,-0.06165 0.674971,-0.453875 0.261648,-1.00436 0.431611,-0.257611 1.081696,-0.720709 0.427626,-1.25284 z"
         id="path33121"
         sodipodi:nodetypes="cccccc" />
    </g>
  </g>
</svg>
