<?xml version="1.0" encoding="UTF-8" standalone="no"?>
<!-- Created with Inkscape (http://www.inkscape.org/) -->

<svg
   width="512"
   height="512"
   viewBox="0 0 135.46666 135.46667"
   version="1.1"
   id="svg90582"
   inkscape:version="1.2.1 (9c6d41e410, 2022-07-14)"
   sodipodi:docname="favicon.svg"
   inkscape:export-filename="/home/short/work/art/profile/profile.png"
   inkscape:export-xdpi="192"
   inkscape:export-ydpi="192"
   xmlns:inkscape="http://www.inkscape.org/namespaces/inkscape"
   xmlns:sodipodi="http://sodipodi.sourceforge.net/DTD/sodipodi-0.dtd"
   xmlns="http://www.w3.org/2000/svg"
   xmlns:svg="http://www.w3.org/2000/svg">
  <sodipodi:namedview
     id="namedview90584"
     pagecolor="#ffffff"
     bordercolor="#666666"
     borderopacity="1.0"
     inkscape:pageshadow="2"
     inkscape:pageopacity="0.0"
     inkscape:pagecheckerboard="0"
     inkscape:document-units="mm"
     showgrid="false"
     units="px"
     width="512px"
     inkscape:zoom="1.0998546"
     inkscape:cx="234.12185"
     inkscape:cy="315.49625"
     inkscape:window-width="2560"
     inkscape:window-height="1355"
     inkscape:window-x="26"
     inkscape:window-y="23"
     inkscape:window-maximized="0"
     inkscape:current-layer="layer1"
     inkscape:showpageshadow="0"
     inkscape:deskcolor="#d1d1d1" />
  <defs
     id="defs90579" />
  <g
     inkscape:label="Layer 1"
     inkscape:groupmode="layer"
     id="layer1">
    <rect
       style="fill:#ae97d0;fill-opacity:1;stroke-width:0.529167;stroke-linejoin:round;paint-order:markers fill stroke"
       id="rect443"
       width="135.46666"
       height="135.46666"
       x="0"
       y="0" />
    <path
       style="fill:#ffffff;fill-opacity:1;stroke:none;stroke-width:0.400804px;stroke-linecap:butt;stroke-linejoin:miter;stroke-opacity:1"
       d="m 88.85089,136.28155 h 16.17352 l -1.27456,-4.37772 -6.799788,2.18445 -4.710223,0.87165 -3.781201,-0.0479 z"
       id="path105143" />
    <path
       style="fill:#ffffff;fill-opacity:1;stroke:none;stroke-width:0.400804px;stroke-linecap:butt;stroke-linejoin:miter;stroke-opacity:1"
       d="m 26.752267,71.911885 -3.802123,-15.558535 4.641607,-13.063234 37.585626,-5.960908 31.610157,21.499421 7.054476,22.584922 0.0534,13.029164 -5.019471,4.707921 -5.585913,-0.121448 -2.733785,1.911462 -4.923509,1.85347 -5.430964,1.22659 -0.641119,1.4243 -4.230523,4.93028 -5.366208,1.96505 -4.280435,0.13443 -4.670997,-1.86173 -2.455529,-2.92161 -1.455574,-2.83788 -7.071574,-0.73084 -8.098838,-1.33611 -3.912631,-1.10839 -7.39158,-3.190472 -3.368338,-2.37211 -3.682883,-3.810569 -1.458305,-4.4751 0.225152,-4.293383 2.423525,-4.958755 1.632157,-4.158083 z"
       id="path98800"
       sodipodi:nodetypes="cccccccccccccccccccccccccccccc" />
    <path
       style="fill:#ffffff;fill-opacity:1;stroke:none;stroke-width:0.400804px;stroke-linecap:butt;stroke-linejoin:miter;stroke-opacity:1"
       d="m 47.617005,135.57794 h -6.895966 l 1.093307,-3.40551 3.34324,1.39367 2.59049,0.42481 z"
       id="path105328" />
    <path
       style="fill:none;stroke:#292929;stroke-width:1.60321;stroke-linecap:round;stroke-linejoin:round;stroke-miterlimit:4;stroke-dasharray:none;stroke-opacity:1"
       d="m 103.86028,132.03174 1.09442,3.80532"
       id="path24316"
       sodipodi:nodetypes="cc" />
    <path
       style="fill:none;stroke:#292929;stroke-width:1.60321;stroke-linecap:round;stroke-linejoin:round;stroke-miterlimit:4;stroke-dasharray:none;stroke-opacity:1"
       d="m 41.632288,131.96773 -0.924883,3.24128"
       id="path24384"
       sodipodi:nodetypes="cc" />
    <path
       style="display:inline;fill:#171717;fill-opacity:1;stroke:#000000;stroke-width:1.60321;stroke-linecap:round;stroke-linejoin:round;stroke-miterlimit:4;stroke-dasharray:none;stroke-opacity:1"
       d="m 47.684669,135.29099 40.972005,0.68179 -0.226117,-1.33514 c 6.449563,1.04555 17.252123,-3.80198 17.252123,-3.80198 0.58075,-4.4837 -6.397192,-18.43093 -7.972606,-19.15102 0,0 -8.99285,-6.29258 -17.577661,-7.06494 -5.996794,10.61936 -19.093194,9.88021 -21.9956,1.88909 0,0 -2.655636,-0.6956 -6.657121,1.26067 -4.511691,3.6229 -5.918049,9.68891 -8.470141,11.91926 -4.004993,3.50008 -3.392178,6.41254 -3.392178,6.41254 -0.645828,1.26034 -1.498703,1.78682 -1.498703,1.78682 2.472345,5.33454 9.611906,5.80303 9.611906,5.80303 z"
       id="path22475"
       sodipodi:nodetypes="ccccccccscccc" />
    <path
       style="display:inline;fill:none;stroke:#292929;stroke-width:1.60321;stroke-linecap:round;stroke-linejoin:round;stroke-miterlimit:4;stroke-dasharray:none;stroke-opacity:1"
       d="m 26.684506,71.912243 c 0.224465,4.970671 -4.69547,9.760415 -4.670088,14.724923 0.05625,11.002378 16.854871,14.891044 16.854871,14.891044 m 3.377792,0.9376 c 6.426885,1.57057 12.337669,2.52604 20.225361,2.7382 m 10.212481,-0.11557 c 17.599958,-1.59901 20.7642,-6.38243 20.7642,-6.38243"
       id="path17727"
       sodipodi:nodetypes="csccccc" />
    <path
       style="display:inline;fill:#dad3b9;fill-opacity:1;stroke:#292929;stroke-width:1.60321;stroke-linecap:round;stroke-linejoin:round;stroke-miterlimit:4;stroke-dasharray:none;stroke-opacity:1"
       d="m 99.661941,30.515038 c 0,0 4.189669,2.704359 10.329729,-1.623313 0,0 -8.26848,0.880045 -10.988722,-3.454938 C 114.15116,20.517908 103.1557,4.3190329 91.525414,4.9324225 83.62298,-7.1454751 71.414583,1.2812418 70.543984,4.3580912 61.141225,8.6460568 64.740456,17.521836 64.740456,17.521836"
       id="path9287"
       sodipodi:nodetypes="cccccc" />
    <path
       style="display:inline;fill:#bfa5e6;fill-opacity:1;stroke:#292929;stroke-width:0.801608;stroke-linecap:round;stroke-linejoin:round;stroke-miterlimit:4;stroke-dasharray:none;stroke-opacity:1"
       d="m 101.13187,21.607431 c 0.56319,-4.144919 0.69817,-6.475126 -2.71033,-12.3214442 0,0 3.89282,2.2027582 4.98512,5.8242572 1.09858,3.642344 -2.27479,6.497187 -2.27479,6.497187 z"
       id="path12115"
       sodipodi:nodetypes="ccsc" />
    <path
       style="display:inline;fill:#bfa5e6;fill-opacity:1;stroke:#292929;stroke-width:0.801608;stroke-linecap:round;stroke-linejoin:round;stroke-miterlimit:4;stroke-dasharray:none;stroke-opacity:1"
       d="M 87.460055,3.8907526 C 83.372679,2.2434344 78.980536,2.2934422 74.607071,3.5528649 c 0,0 3.375723,-2.90100974 6.637382,-2.75230924 3.280402,0.14954641 6.215602,3.09019694 6.215602,3.09019694 z"
       id="path12115-3"
       sodipodi:nodetypes="ccsc" />
    <path
       style="display:inline;fill:#bfa5e6;fill-opacity:1;stroke:#292929;stroke-width:0.801608;stroke-linecap:round;stroke-linejoin:round;stroke-miterlimit:4;stroke-dasharray:none;stroke-opacity:1"
       d="m 67.729368,17.188458 c -2.291577,-3.904055 0.274667,-6.962212 0.274667,-6.962212 -0.109846,2.954107 0.129974,4.568617 1.753862,7.190897"
       id="path12115-3-7"
       sodipodi:nodetypes="ccc" />
    <path
       style="display:inline;fill:#dad3b9;fill-opacity:1;stroke:#292929;stroke-width:1.60321;stroke-linecap:round;stroke-linejoin:round;stroke-miterlimit:4;stroke-dasharray:none;stroke-opacity:1"
       d="m 92.468332,101.91241 c 10.597958,-3.103945 13.991928,-5.417829 16.357428,-13.029989 2.3655,-7.612162 -1.40108,-8.630674 1.59609,-17.153873 C 120.07011,57.14788 103.4283,24.25205 87.624178,25.523212 78.745068,15.666677 62.050436,16.739933 52.579897,20.11641 39.22816,21.104624 30.823471,31.77436 28.841647,34.62555 c -6.808719,1.825956 -10.335102,11.418457 -10.81482,12.942668 -0.479719,1.524211 -2.595216,8.888767 -5.516501,12.137817 2.92787,-0.623669 4.429479,-4.071385 4.429479,-4.071385 0,0 -0.903654,9.632104 -8.4352969,13.940854 6.1292299,1.327504 8.9725809,-7.976751 8.9725809,-7.976751 0,0 -0.252766,9.867258 5.483226,13.430978 0.494581,-1.625015 -0.466907,-3.009007 -0.466907,-3.009007 l 2.99612,0.767078 c 1.818174,0.43169 4.990596,0.10624 4.990596,0.10624 -4.221029,-4.886337 -4.637399,-12.426253 -4.637399,-12.426253 0,0 3.220486,10.216981 7.736178,6.670158 -6.109478,-2.449754 -4.987581,-18.089287 -4.987581,-18.089287 2.646105,12.022691 5.018456,10.703018 5.018456,10.703018 0.942445,-0.05871 -2.718702,-10.386827 -0.176956,-12.036305 0,0 0.31406,14.532234 4.409822,17.036611 0.410946,-0.471532 1.380438,-0.608723 1.380438,-0.608723 C 36.555534,62.681239 37.67574,56.558326 37.67574,56.558326 44.665473,74.491472 57.280871,70.18441 57.280871,70.18441 49.984194,62.351607 55.869118,43.645769 55.869118,43.645769 c 0,0 4.623203,12.6618 11.977674,17.542133 1.152272,1.200457 1.247192,3.966579 1.247192,3.966579 1.211654,0.21012 1.255311,-3.631545 1.255311,-3.631545 1.653294,2.237846 0.96905,8.80596 0.96905,8.80596 10.113724,-2.537427 6.965921,-14.486286 6.965921,-14.486286 6.942405,14.872888 0.724401,24.773053 0.724401,24.773053 0,0 3.487586,2.319111 7.596627,-4.452557 l 0.60358,6.57016 2.195422,-7.631553 1.058925,12.540304 c 0.359342,0.764235 1.131314,0.394635 1.131314,0.394635 11.700305,-5.284973 12.606705,11.650082 1.136003,9.4623 l 1.289056,1.236563 z"
       id="path1043"
       sodipodi:nodetypes="csccccscccccccccccccccccccccccccccccccc" />
    <path
       style="display:inline;fill:#292929;fill-opacity:1;stroke:#292929;stroke-width:0.400804px;stroke-linecap:butt;stroke-linejoin:miter;stroke-opacity:1"
       d="m 29.652981,74.727094 c 3.3765,-1.282455 6.193283,-2.316467 10.955769,-1.722502 0.532803,-0.03761 0.451333,-0.590325 0.08239,-1.177961 -0.351843,-0.423872 -0.171228,-0.133883 -0.683751,-0.506172 -0.467549,-0.281443 -0.171811,-1.138093 -0.959496,-1.337164 -6.566105,0.160086 -10.050828,2.634502 -10.277751,3.389421 0.03542,0.999662 0.645144,1.276878 0.882829,1.354378 z"
       id="path30397"
       sodipodi:nodetypes="ccccccc" />
    <path
       style="display:inline;fill:#292929;fill-opacity:1;stroke:#292929;stroke-width:0.400804;stroke-linecap:round;stroke-linejoin:round;stroke-miterlimit:4;stroke-dasharray:none;stroke-opacity:1"
       d="m 70.123825,72.643871 c -2.274595,-1.761363 -13.17788,-2.744349 -13.17788,-2.744349 -0.137321,1.431194 -0.352183,1.421187 -0.631295,2.319836 2.837884,-0.06457 10.909944,1.928648 13.093772,2.76728 0.589701,-0.06399 0.700557,-0.471081 0.271567,-1.042434 0.447972,-0.267375 1.122702,-0.748029 0.443836,-1.300333 z"
       id="path33121"
       sodipodi:nodetypes="cccccc" />
    <path
       style="fill:none;stroke:#f8f8f8;stroke-width:1.60321;stroke-linecap:round;stroke-linejoin:round;stroke-miterlimit:4;stroke-dasharray:none;stroke-opacity:1"
       d="M 30.835533,5.7596923 C 32.708678,11.28955 32.708678,11.28955 38.141069,13.065228 32.708678,14.9216 32.708678,14.9216 30.835535,20.370761 29.075803,14.9216 29.075803,14.9216 23.529999,13.065226 29.075803,11.28955 29.075803,11.28955 30.835533,5.7596923 Z"
       id="path188342-7"
       sodipodi:nodetypes="ccccc" />
    <path
       style="fill:none;stroke:#f8f8f8;stroke-width:1.60321;stroke-linecap:round;stroke-linejoin:round;stroke-miterlimit:4;stroke-dasharray:none;stroke-opacity:1"
       d="m 13.87444,24.725337 c 1.873145,5.529858 1.873145,5.529858 7.305535,7.305535 -5.43239,1.856372 -5.43239,1.856372 -7.305534,7.305535 -1.759733,-5.449163 -1.759733,-5.449163 -7.3055367,-7.305536 5.5458037,-1.775676 5.5458037,-1.775676 7.3055357,-7.305534 z"
       id="path188342-7-0"
       sodipodi:nodetypes="ccccc" />
    <path
       style="fill:none;stroke:#f8f8f8;stroke-width:1.60321;stroke-linecap:round;stroke-linejoin:round;stroke-miterlimit:4;stroke-dasharray:none;stroke-opacity:1"
       d="m 118.35021,97.91867 c 1.87314,5.52986 1.87314,5.52986 7.30554,7.30554 -5.4324,1.85637 -5.4324,1.85637 -7.30554,7.30553 -1.75973,-5.44916 -1.75973,-5.44916 -7.30554,-7.30553 5.54581,-1.77568 5.54581,-1.77568 7.30554,-7.30554 z"
       id="path188342-7-3"
       sodipodi:nodetypes="ccccc" />
    <circle
       style="fill:none;fill-opacity:1;stroke:#ffffff;stroke-width:1.60321;stroke-linecap:round;stroke-linejoin:round;stroke-miterlimit:4;stroke-dasharray:none;stroke-opacity:1;paint-order:markers fill stroke"
       id="path189787-2-6"
       cx="22.10696"
       cy="22.331408"
       r="2.5471301" />
    <circle
       style="fill:none;fill-opacity:1;stroke:#ffffff;stroke-width:1.60321;stroke-linecap:round;stroke-linejoin:round;stroke-miterlimit:4;stroke-dasharray:none;stroke-opacity:1;paint-order:markers fill stroke"
       id="path189787-2-8"
       cx="127.83219"
       cy="93.311638"
       r="2.5471301" />
    <circle
       style="fill:none;fill-opacity:1;stroke:#ffffff;stroke-width:1.60321;stroke-linecap:round;stroke-linejoin:round;stroke-miterlimit:4;stroke-dasharray:none;stroke-opacity:1;paint-order:markers fill stroke"
       id="path189787-2-9"
       cx="128.45894"
       cy="115.99847"
       r="2.5471301" />
  </g>
</svg>
